<svg xmlns="http://www.w3.org/2000/svg" viewBox="0 0 200 200" role="img" aria-label="BiteBack">
  <defs>
    <linearGradient id="m-fruit" x1="30" y1="30" x2="170" y2="190" gradientUnits="userSpaceOnUse">
      <stop offset="0" stop-color="#FF8A4C"/>
      <stop offset="1" stop-color="#E8432E"/>
    </linearGradient>
    <linearGradient id="m-leaf" x1="96" y1="10" x2="140" y2="60" gradientUnits="userSpaceOnUse">
      <stop offset="0" stop-color="#3FB27F"/>
      <stop offset="1" stop-color="#15724A"/>
    </linearGradient>
    <mask id="m-bite" maskUnits="userSpaceOnUse" x="0" y="0" width="200" height="200">
      <rect width="200" height="200" fill="#fff"/>
      <circle cx="172" cy="62" r="19" fill="#000"/>
      <circle cx="178" cy="95" r="17" fill="#000"/>
      <circle cx="160" cy="38" r="16" fill="#000"/>
    </mask>
  </defs>
  <g mask="url(#m-bite)">
    <path d="M100 44 C 70 26, 22 40, 22 102 C 22 152, 58 190, 100 180 C 142 190, 178 152, 178 102 C 178 40, 130 26, 100 44 Z" fill="url(#m-fruit)"/>
  </g>
  <path d="M100 46 C 99 36, 101 28, 106 20" fill="none" stroke="#6B3A1E" stroke-width="7" stroke-linecap="round"/>
  <path d="M104 30 C 112 8, 140 2, 152 10 C 146 32, 124 42, 104 30 Z" fill="url(#m-leaf)"/>
  <path d="M110 28 C 122 22, 134 16, 146 12" fill="none" stroke="#BFF0D6" stroke-width="2.5" stroke-linecap="round" opacity=".8"/>
  <path d="M136 118 A 38 38 0 1 1 118 83" fill="none" stroke="#FFF7EC" stroke-width="13" stroke-linecap="round"/>
  <path d="M104 68 L 134 80 L 110 102 Z" fill="#FFF7EC" stroke="#FFF7EC" stroke-width="6" stroke-linejoin="round"/>
  </svg>
